<svg xmlns="http://www.w3.org/2000/svg" data-name="Layer 1" viewBox="0 0 24 30" x="0px" y="0px"><title>Noodle</title><path d="M12,22A12.00406,12.00406,0,0,1,.00977,10.00928a.49971.49971,0,0,1,.5-.5H23.49023a.49971.49971,0,0,1,.5.5A12.00406,12.00406,0,0,1,12,22ZM1.02148,10.50928a10.98986,10.98986,0,0,0,21.957,0Z"/><path d="M10.5,13.03369H.79a.5.5,0,1,1,0-1H10.5a.5.5,0,0,1,0,1Z"/><path d="M17.30957,24H6.69043a.49971.49971,0,0,1-.5-.5v-3a.49971.49971,0,0,1,.5-.5h.63574a.49925.49925,0,0,1,.2041.04346,10.96735,10.96735,0,0,0,8.93946,0A.49925.49925,0,0,1,16.67383,20h.63574a.49971.49971,0,0,1,.5.5v3A.49971.49971,0,0,1,17.30957,24ZM7.19043,23h9.61914l-.03027-2a11.97175,11.97175,0,0,1-9.5586,0H7.19043Z"/><path d="M4.5,10A.49971.49971,0,0,1,4,9.5v-7a.5.5,0,0,1,1,0v7A.49971.49971,0,0,1,4.5,10Z"/><path d="M2.5,4a.50006.50006,0,0,1-.02441-.99951l.80468-.04a.50011.50011,0,0,1,.04883.999l-.80469.04Z"/><path d="M10.84766,3.53271a.50009.50009,0,0,1-.02539-.99951l10.65234-.53271a.47789.47789,0,0,1,.52441.47461.5.5,0,0,1-.47363.52441L10.873,3.53223Z"/><path d="M23.501,8c-.01563,0-.03125-.00049-.0459-.00195L11.457,6.90723a.50043.50043,0,0,1-.45312-.54346.5128.5128,0,0,1,.543-.45264L23.54492,7.002A.5.5,0,0,1,23.501,8Z"/><path d="M3.14453,6.14941c-.01562,0-.03125-.00048-.0459-.00195L1.45508,5.99805a.50045.50045,0,0,1-.45313-.54346.51163.51163,0,0,1,.543-.45264l1.64356.14942a.5.5,0,0,1-.044.998Z"/><path d="M6.5,8A.49971.49971,0,0,1,6,7.5v-5a.5.5,0,0,1,1,0v5A.49971.49971,0,0,1,6.5,8Z"/><path d="M8.5,8A.49971.49971,0,0,1,8,7.5v-5a.5.5,0,0,1,1,0v5A.49971.49971,0,0,1,8.5,8Z"/><text x="0" y="39" fill="#000000" font-size="5px" font-weight="bold" font-family="'Helvetica Neue', Helvetica, Arial-Unicode, Arial, Sans-serif">Created by Ahmad Dicky Setiawan</text><text x="0" y="44" fill="#000000" font-size="5px" font-weight="bold" font-family="'Helvetica Neue', Helvetica, Arial-Unicode, Arial, Sans-serif">from the Noun Project</text></svg>