<?xml version="1.0" encoding="iso-8859-1"?>
<!-- Generator: Adobe Illustrator 21.0.2, SVG Export Plug-In . SVG Version: 6.00 Build 0)  -->
<svg version="1.1" id="Capa_1" xmlns="http://www.w3.org/2000/svg" xmlns:xlink="http://www.w3.org/1999/xlink" x="0px" y="0px"
	 viewBox="0 0 1096 780" style="enable-background:new 0 0 1096 780;" xml:space="preserve">
<g>
	<path style="fill:none;stroke:#000000;stroke-width:6;stroke-miterlimit:10;" d="M273.915,432.943H67.988
		c-5.686,0-10.296-4.61-10.296-10.296l0,0c0-5.686,4.61-10.296,10.296-10.296h2.06c8.53,0,15.445-6.915,15.445-15.445V284.398
		c0-6.094-3.584-11.619-9.149-14.103l-29.291-13.076"/>
	<path style="fill:none;stroke:#000000;stroke-width:6;stroke-miterlimit:10;" d="M258.589,353.033L107.29,285.489V412.35h145.003
		c8.53,0,15.445-6.915,15.445-15.445v-29.769C267.737,361.042,264.154,355.518,258.589,353.033z"/>
	
		<line style="fill:none;stroke:#000000;stroke-width:6;stroke-miterlimit:10;" x1="267.737" y1="378.556" x2="107.29" y2="306.928"/>
	
		<line style="fill:none;stroke:#000000;stroke-width:6;stroke-miterlimit:10;" x1="267.737" y1="406.172" x2="107.29" y2="334.544"/>
	<line style="fill:none;stroke:#000000;stroke-width:6;stroke-miterlimit:10;" x1="219.715" y1="412.35" x2="107.29" y2="362.16"/>
	<line style="fill:none;stroke:#000000;stroke-width:6;stroke-miterlimit:10;" x1="157.854" y1="412.35" x2="107.29" y2="389.777"/>
	<circle style="fill:none;stroke:#000000;stroke-width:6;stroke-miterlimit:10;" cx="102.652" cy="470.303" r="18.305"/>
	<circle style="fill:none;stroke:#000000;stroke-width:6;stroke-miterlimit:10;" cx="249.432" cy="470.303" r="18.305"/>
</g>
<g>
	<circle style="fill:none;stroke:#000000;stroke-width:6;stroke-miterlimit:10;" cx="498.168" cy="460.848" r="19.165"/>
	<circle style="fill:none;stroke:#000000;stroke-width:6;stroke-miterlimit:10;" cx="594.171" cy="460.848" r="19.165"/>
	<path style="fill:none;stroke:#000000;stroke-width:6;stroke-miterlimit:10;" d="M350.781,272.557h67.654
		c7.182,0,13.504,4.738,15.52,11.631l37.754,129.096c2.016,6.894,8.338,11.631,15.52,11.631h108.388
		c4.289,0,8.401-1.704,11.434-4.736l59.29-59.29c10.187-10.187,2.972-27.604-11.434-27.604h-167.58"/>
	
		<line style="fill:none;stroke:#000000;stroke-width:6;stroke-miterlimit:10;" x1="662.683" y1="364.546" x2="487.328" y2="364.546"/>
	
		<line style="fill:none;stroke:#000000;stroke-width:6;stroke-miterlimit:10;" x1="631.421" y1="395.809" x2="487.328" y2="395.809"/>
</g>
<g>
	<path style="fill:none;stroke:#000000;stroke-width:6;stroke-miterlimit:10;" d="M764.423,267.858h21.367
		c7.493,0,13.905,5.378,15.209,12.757l25.694,145.405c1.304,7.379,7.716,12.757,15.209,12.757h173.413
		c7.377,0,13.724-5.217,15.152-12.455l21.8-110.482c1.88-9.529-5.397-18.407-15.109-18.434l-233.307-0.65"/>
	
		<line style="fill:none;stroke:#000000;stroke-width:6;stroke-miterlimit:10;" x1="834.011" y1="296.826" x2="857.013" y2="438.777"/>
	
		<line style="fill:none;stroke:#000000;stroke-width:6;stroke-miterlimit:10;" x1="881.517" y1="438.777" x2="865.734" y2="296.919"/>
	
		<line style="fill:none;stroke:#000000;stroke-width:6;stroke-miterlimit:10;" x1="906.885" y1="438.777" x2="896.592" y2="297.007"/>
	
		<line style="fill:none;stroke:#000000;stroke-width:6;stroke-miterlimit:10;" x1="1025.692" y1="296.826" x2="1002.691" y2="438.777"/>
	
		<line style="fill:none;stroke:#000000;stroke-width:6;stroke-miterlimit:10;" x1="978.187" y1="438.777" x2="993.97" y2="296.919"/>
	
		<line style="fill:none;stroke:#000000;stroke-width:6;stroke-miterlimit:10;" x1="952.818" y1="438.777" x2="963.112" y2="297.007"/>
	
		<line style="fill:none;stroke:#000000;stroke-width:6;stroke-miterlimit:10;" x1="929.852" y1="297.101" x2="929.852" y2="438.777"/>
	
		<line style="fill:none;stroke:#000000;stroke-width:6;stroke-miterlimit:10;" x1="808.936" y1="325.536" x2="1050.354" y2="325.536"/>
	
		<line style="fill:none;stroke:#000000;stroke-width:6;stroke-miterlimit:10;" x1="813.846" y1="353.318" x2="1044.872" y2="353.318"/>
	
		<line style="fill:none;stroke:#000000;stroke-width:6;stroke-miterlimit:10;" x1="818.91" y1="381.976" x2="1039.217" y2="381.976"/>
	
		<line style="fill:none;stroke:#000000;stroke-width:6;stroke-miterlimit:10;" x1="824.107" y1="411.385" x2="1033.415" y2="411.385"/>
	<circle style="fill:none;stroke:#000000;stroke-width:6;stroke-miterlimit:10;" cx="856.467" cy="476.295" r="20.257"/>
	<circle style="fill:none;stroke:#000000;stroke-width:6;stroke-miterlimit:10;" cx="1000.632" cy="476.295" r="20.257"/>
</g>
<g>
	<path style="fill:none;stroke:#000000;stroke-width:6;stroke-miterlimit:10;" d="M409.47,483.358l31.245,11.416
		c5.621,2.054,9.795,6.849,11.056,12.699l27.543,127.878c1.729,8.027,8.826,13.758,17.036,13.758h163.296"/>
	<path style="fill:none;stroke:#000000;stroke-width:6;stroke-miterlimit:10;" d="M659.646,546.87v79.011H507.352
		c-4.105,0-7.654-2.866-8.518-6.879l-19.29-89.56h162.675C651.844,529.443,659.646,537.245,659.646,546.87z"/>
	<circle style="fill:none;stroke:#000000;stroke-width:6;stroke-miterlimit:10;" cx="511.7" cy="691.718" r="22.858"/>
	<circle style="fill:none;stroke:#000000;stroke-width:6;stroke-miterlimit:10;" cx="511.7" cy="691.718" r="7.85"/>
	<circle style="fill:none;stroke:#000000;stroke-width:6;stroke-miterlimit:10;" cx="628.664" cy="691.718" r="7.85"/>
	<circle style="fill:none;stroke:#000000;stroke-width:6;stroke-miterlimit:10;" cx="628.664" cy="691.718" r="22.858"/>
</g>
<g>
	<path style="fill:none;stroke:#000000;stroke-width:6;stroke-miterlimit:10;" d="M141.545,213.196
		c11.25,0,20.369,9.12,20.369,20.369c0,11.25-9.12,20.369-20.369,20.369s-20.369-9.12-20.369-20.369"/>
	<path style="fill:none;stroke:#000000;stroke-width:6;stroke-miterlimit:10;" d="M251.654,213.196
		c11.25,0,20.369,9.12,20.369,20.369c0,11.25-9.12,20.369-20.369,20.369s-20.369-9.12-20.369-20.369"/>
	<path style="fill:none;stroke:#000000;stroke-width:6;stroke-miterlimit:10;" d="M24.195,24.113h25.726
		c7.369,0,13.919,4.698,16.28,11.679l49.522,146.405c2.361,6.981,8.91,11.679,16.28,11.679h136.824
		c7.72,0,14.493-5.148,16.559-12.587l16.863-60.716c3.042-10.951-5.194-21.785-16.559-21.785h-24.292"/>
</g>
<g>
	<path style="fill:none;stroke:#000000;stroke-width:6;stroke-miterlimit:10;" d="M501.455,207.126
		c9.603,0,17.388,7.785,17.388,17.388s-7.785,17.388-17.388,17.388c-9.603,0-17.388-7.785-17.388-17.388"/>
	<path style="fill:none;stroke:#000000;stroke-width:6;stroke-miterlimit:10;" d="M618.248,207.126
		c9.603,0,17.388,7.785,17.388,17.388s-7.785,17.388-17.388,17.388c-9.603,0-17.388-7.785-17.388-17.388"/>
	<line style="fill:none;stroke:#000000;stroke-width:6;stroke-miterlimit:10;" x1="601.491" y1="77.196" x2="460.228" y2="77.336"/>
	<path style="fill:none;stroke:#000000;stroke-width:6;stroke-miterlimit:10;" d="M412.81,33.191h24.767
		c4.613,0,8.713,2.941,10.191,7.311l46.546,137.607h130.299c4.833,0,9.073-3.223,10.366-7.879l9.759-35.136"/>
	<circle style="fill:none;stroke:#000000;stroke-width:6;stroke-miterlimit:10;" cx="647.258" cy="88.103" r="47.059"/>
	<line style="fill:none;stroke:#000000;stroke-width:6;stroke-miterlimit:10;" x1="621.824" y1="88.103" x2="672.693" y2="88.103"/>
	<path style="fill:none;stroke:#000000;stroke-width:6;stroke-miterlimit:10;" d="M494.315,178.11l-2.793,1.585
		c-13.106,7.436-7.828,27.431,7.24,27.431h119.486"/>
</g>
<g>
	<path style="fill:none;stroke:#000000;stroke-width:6;stroke-miterlimit:10;" d="M875.747,215.126
		c9.603,0,17.388,7.785,17.388,17.388s-7.785,17.388-17.388,17.388s-17.388-7.785-17.388-17.388"/>
	<path style="fill:none;stroke:#000000;stroke-width:6;stroke-miterlimit:10;" d="M992.54,215.126
		c9.603,0,17.388,7.785,17.388,17.388s-7.785,17.388-17.388,17.388c-9.603,0-17.388-7.785-17.388-17.388"/>
	<line style="fill:none;stroke:#000000;stroke-width:6;stroke-miterlimit:10;" x1="975.783" y1="85.196" x2="834.52" y2="85.336"/>
	<path style="fill:none;stroke:#000000;stroke-width:6;stroke-miterlimit:10;" d="M787.102,41.191h24.767
		c4.613,0,8.713,2.941,10.191,7.311l46.546,137.607h130.299c4.833,0,9.073-3.223,10.366-7.879l9.759-35.136"/>
	<circle style="fill:none;stroke:#000000;stroke-width:6;stroke-miterlimit:10;" cx="1021.55" cy="96.103" r="47.059"/>
	
		<line style="fill:none;stroke:#000000;stroke-width:6;stroke-miterlimit:10;" x1="996.116" y1="96.103" x2="1046.985" y2="96.103"/>
	
		<line style="fill:none;stroke:#000000;stroke-width:6;stroke-miterlimit:10;" x1="1021.55" y1="70.669" x2="1021.55" y2="121.538"/>
	<path style="fill:none;stroke:#000000;stroke-width:6;stroke-miterlimit:10;" d="M868.607,186.11l-2.793,1.585
		c-13.106,7.436-7.828,27.431,7.24,27.431H992.54"/>
</g>
<g>
	<circle style="fill:none;stroke:#000000;stroke-width:6;stroke-miterlimit:10;" cx="832.961" cy="701.525" r="16.069"/>
	<circle style="fill:none;stroke:#000000;stroke-width:6;stroke-miterlimit:10;" cx="966.763" cy="701.525" r="16.069"/>
	<path style="fill:none;stroke:#000000;stroke-width:6;stroke-miterlimit:10;" d="M745.405,491.358l39.411,22.053
		c4.086,2.286,6.8,6.422,7.271,11.081l13.252,130.981c0.742,7.33,6.913,12.908,14.28,12.908h170.747"/>
	
		<line style="fill:none;stroke:#000000;stroke-width:6;stroke-miterlimit:10;" x1="803.353" y1="632.02" x2="1008.547" y2="632.02"/>
	
		<line style="fill:none;stroke:#000000;stroke-width:6;stroke-miterlimit:10;" x1="799.094" y1="593.744" x2="1032.469" y2="593.744"/>
	
		<line style="fill:none;stroke:#000000;stroke-width:6;stroke-miterlimit:10;" x1="794.206" y1="555.469" x2="1052.564" y2="555.469"/>
</g>
<g>
	<g>
		<g>
			<path d="M568.303,748.295c0.481,0,0.924,0.42,0.924,0.42l-7.937,16.953c-0.869,0-2.956,0.124-3.465,0.124
				c-0.48,0-0.924-0.419-0.924-0.419l-2.714-16.953c1.646,0,3.704-0.124,4.32-0.124c0.483,0,0.924,0.42,0.924,0.42l0.83,8.293
				c0.071,0.715,0.077,1.706,0.048,2.75c0.267-1.14,0.561-2.219,0.848-2.948l3.299-8.394c1.463,0,3.279-0.122,3.844-0.122H568.303z"
				/>
		</g>
		<g>
			<path d="M576.481,756.659c0,1.846-1.031,3.066-3.598,3.595l-2.694,0.556c0.207,1.161,0.937,1.729,2.148,1.729
				c1.484,0,2.477-1.12,2.477-1.12s0.757,0.422,0.757,1.289c0,1.538-2.359,3.206-5.102,3.206c-2.783,0-4.6-1.759-4.6-4.729
				c0-3.431,2.431-8.085,6.757-8.085C574.997,753.1,576.481,754.503,576.481,756.659L576.481,756.659z M571.927,758.432
				c0.574-0.181,0.747-0.655,0.747-1.198c0-0.511-0.165-1.274-0.758-1.274c-1.068,0-1.538,1.724-1.708,3.017L571.927,758.432z"/>
		</g>
		<g>
			<path d="M583.734,753.1c2.183,0,3.823,1.157,3.823,2.659c0,1.878-2.274,2.565-2.274,2.565s-0.667-2.051-2.196-2.051
				c-1.036,0-1.632,1.048-1.632,3.282c0,2.058,0.541,2.984,1.873,2.984c1.366,0,2.207-0.93,2.207-0.93s0.758,0.421,0.758,1.265
				c0,1.472-2.265,3.041-4.903,3.041c-2.809,0-4.539-1.759-4.539-4.682c0-3.477,2.486-8.132,6.884-8.132H583.734z"/>
		</g>
		<g>
			<path d="M594.222,750.36c0.526,0,0.876,0.401,0.876,0.401l-0.411,2.586h2.739l-0.618,1.971c-0.2,0.635-0.515,0.985-1.158,0.985
				h-1.431l-0.798,5.038c-0.13,0.815,0.048,1.192,0.602,1.198c0.504,0.003,1.001-0.307,1.001-0.307s0.764,0.426,0.764,1.225
				c0,1.233-1.759,2.458-3.984,2.458c-2.361,0-3.313-1.445-2.913-3.972l0.891-5.638h-1.486l0.647-2.057
				c0.166-0.527,0.601-0.9,1.134-0.9h0.722l0.866-2.38C592.738,750.704,593.736,750.36,594.222,750.36L594.222,750.36z"/>
		</g>
		<g>
			<path d="M607.52,756.659c0,1.846-1.03,3.066-3.597,3.595l-2.695,0.556c0.208,1.161,0.937,1.729,2.147,1.729
				c1.484,0,2.478-1.12,2.478-1.12s0.758,0.422,0.758,1.289c0,1.538-2.359,3.206-5.102,3.206c-2.784,0-4.6-1.759-4.6-4.729
				c0-3.431,2.43-8.085,6.757-8.085C606.037,753.1,607.521,754.503,607.52,756.659L607.52,756.659z M602.967,758.432
				c0.574-0.181,0.747-0.655,0.747-1.198c0-0.511-0.166-1.274-0.758-1.274c-1.068,0-1.54,1.724-1.708,3.017L602.967,758.432z"/>
		</g>
		<g>
			<path d="M618.509,756.659c0,1.846-1.03,3.066-3.596,3.595l-2.695,0.556c0.207,1.161,0.937,1.729,2.147,1.729
				c1.486,0,2.477-1.12,2.477-1.12s0.759,0.422,0.759,1.289c0,1.538-2.359,3.206-5.102,3.206c-2.784,0-4.601-1.759-4.601-4.729
				c0-3.431,2.432-8.085,6.757-8.085c2.37,0,3.855,1.403,3.855,3.559H618.509z M613.956,758.432
				c0.574-0.181,0.747-0.655,0.747-1.198c0-0.511-0.167-1.274-0.758-1.274c-1.068,0-1.54,1.724-1.709,3.017L613.956,758.432z"/>
		</g>
		<g>
			<path d="M627.498,761.261c0,0,0.926,0.856,0.926,2.271c0,1.888-1.599,2.382-2.938,2.382c-1.746,0-3.016-0.832-4.344-1.281
				c-0.37,0.426-0.733,0.855-1.08,1.281c0,0-1.968-0.05-1.968-1.39c0-1.635,2.724-4.438,5.66-7.615
				c-0.339-0.061-0.663-0.103-0.957-0.103c-1.668,0-2.315,0.834-2.315,0.834s-0.858-0.987-0.786-2.272
				c0.097-1.781,1.791-2.269,3.121-2.269c1.411,0,2.446,0.545,3.464,0.991l0.827-0.991c0,0,1.985,0.061,1.985,1.408
				c0,1.577-2.637,4.33-5.487,7.403c0.603,0.169,1.164,0.306,1.721,0.306C626.807,762.217,627.498,761.261,627.498,761.261
				L627.498,761.261z"/>
		</g>
		<g>
			<path d="M640.273,764.827c-0.708,4.315-3.666,6.508-7.41,6.508c-2.391,0-4.175-1.256-4.175-2.711c0-0.96,0.799-1.405,0.799-1.405
				s0.813,0.74,2.415,0.74c1.503,0,3.54-0.641,3.898-2.909l0.281-1.766c-1.009,1.452-2.347,2.629-4.038,2.629
				c-1.9,0-2.746-1.554-2.245-4.713l0.54-3.419c0.333-2.094,0.424-3.803,0.424-3.803c1.352-0.25,3.134-0.88,3.758-0.88
				c0.483,0,0.931,0.403,0.931,0.403l-0.677,4.28l-0.626,3.948c-0.057,0.364,0.011,0.568,0.341,0.568
				c1.574,0,2.462-4.516,2.462-4.516c0.331-2.094,0.423-3.803,0.423-3.803c1.35-0.25,3.133-0.88,3.757-0.88
				c0.484,0,0.932,0.403,0.932,0.403l-0.678,4.28L640.273,764.827z"/>
		</g>
	</g>
	<g>
		<path d="M457.796,753.792h4.238c0.956,0,1.684,0.073,2.185,0.219c0.674,0.198,1.251,0.551,1.731,1.058
			c0.48,0.506,0.846,1.127,1.097,1.86c0.251,0.735,0.376,1.639,0.376,2.715c0,0.945-0.117,1.76-0.352,2.444
			c-0.287,0.836-0.697,1.512-1.23,2.029c-0.402,0.392-0.945,0.697-1.629,0.916c-0.512,0.162-1.196,0.243-2.052,0.243h-4.363V753.792
			z M460.115,755.734v7.606h1.731c0.648,0,1.115-0.037,1.402-0.11c0.376-0.094,0.688-0.253,0.936-0.478
			c0.248-0.224,0.45-0.594,0.607-1.109c0.157-0.514,0.235-1.215,0.235-2.103s-0.078-1.569-0.235-2.044
			c-0.157-0.475-0.376-0.846-0.658-1.112s-0.64-0.447-1.073-0.54c-0.324-0.073-0.958-0.11-1.903-0.11H460.115z"/>
		<path d="M473.87,762.628l2.193,0.368c-0.282,0.804-0.727,1.417-1.336,1.837c-0.608,0.42-1.369,0.63-2.283,0.63
			c-1.447,0-2.517-0.473-3.212-1.418c-0.548-0.757-0.823-1.713-0.823-2.867c0-1.379,0.36-2.458,1.081-3.239
			c0.721-0.781,1.632-1.171,2.734-1.171c1.238,0,2.214,0.409,2.93,1.225c0.715,0.818,1.057,2.07,1.026,3.756h-5.514
			c0.016,0.653,0.193,1.161,0.533,1.523c0.339,0.364,0.762,0.545,1.269,0.545c0.345,0,0.634-0.094,0.869-0.282
			C473.572,763.348,473.75,763.045,473.87,762.628z M473.995,760.403c-0.016-0.637-0.18-1.121-0.493-1.453
			c-0.313-0.331-0.695-0.497-1.144-0.497c-0.48,0-0.877,0.175-1.191,0.525c-0.313,0.35-0.467,0.825-0.462,1.426H473.995z"/>
		<path d="M476.878,762.902l2.209-0.337c0.094,0.428,0.285,0.754,0.572,0.975c0.287,0.223,0.689,0.333,1.206,0.333
			c0.569,0,0.997-0.104,1.285-0.313c0.193-0.146,0.29-0.342,0.29-0.587c0-0.167-0.052-0.306-0.157-0.415
			c-0.11-0.104-0.355-0.201-0.736-0.29c-1.776-0.392-2.901-0.749-3.376-1.073c-0.658-0.449-0.987-1.073-0.987-1.872
			c0-0.721,0.285-1.326,0.854-1.817c0.569-0.491,1.452-0.736,2.648-0.736c1.138,0,1.984,0.185,2.538,0.556
			c0.554,0.371,0.935,0.919,1.144,1.645l-2.076,0.384c-0.089-0.324-0.257-0.572-0.505-0.744c-0.248-0.172-0.602-0.258-1.061-0.258
			c-0.58,0-0.995,0.081-1.245,0.243c-0.167,0.115-0.251,0.264-0.251,0.446c0,0.157,0.073,0.29,0.219,0.4
			c0.198,0.146,0.884,0.352,2.056,0.619c1.172,0.266,1.991,0.593,2.456,0.979c0.46,0.392,0.689,0.937,0.689,1.637
			c0,0.762-0.319,1.418-0.956,1.966c-0.637,0.548-1.58,0.822-2.828,0.822c-1.133,0-2.03-0.23-2.691-0.689
			C477.514,764.314,477.081,763.69,476.878,762.902z"/>
		<path d="M486.254,755.828v-2.037h2.201v2.037H486.254z M486.254,765.275v-8.319h2.201v8.319H486.254z"/>
		<path d="M490.187,765.823l2.514,0.306c0.042,0.292,0.138,0.493,0.29,0.603c0.209,0.157,0.538,0.235,0.987,0.235
			c0.574,0,1.005-0.086,1.292-0.258c0.193-0.115,0.34-0.3,0.439-0.556c0.068-0.183,0.102-0.52,0.102-1.01v-1.214
			c-0.658,0.898-1.488,1.347-2.491,1.347c-1.118,0-2.003-0.473-2.655-1.418c-0.512-0.747-0.768-1.676-0.768-2.789
			c0-1.394,0.336-2.46,1.007-3.196c0.671-0.736,1.505-1.104,2.503-1.104c1.029,0,1.877,0.452,2.546,1.355v-1.167h2.06v7.465
			c0,0.982-0.081,1.715-0.243,2.201c-0.162,0.486-0.389,0.867-0.681,1.144c-0.292,0.277-0.683,0.493-1.171,0.65
			c-0.488,0.157-1.106,0.235-1.853,0.235c-1.41,0-2.41-0.242-3-0.725s-0.885-1.095-0.885-1.836
			C490.179,766.017,490.182,765.928,490.187,765.823z M492.153,760.943c0,0.883,0.171,1.529,0.513,1.938
			c0.342,0.411,0.764,0.615,1.265,0.615c0.538,0,0.992-0.21,1.363-0.631c0.371-0.42,0.556-1.043,0.556-1.868
			c0-0.862-0.178-1.501-0.533-1.919c-0.355-0.418-0.804-0.627-1.347-0.627c-0.527,0-0.962,0.205-1.304,0.615
			C492.324,759.478,492.153,760.103,492.153,760.943z"/>
		<path d="M507.436,765.275h-2.201v-4.246c0-0.898-0.047-1.479-0.141-1.742c-0.094-0.264-0.247-0.469-0.458-0.615
			c-0.211-0.146-0.466-0.219-0.764-0.219c-0.381,0-0.723,0.104-1.026,0.313c-0.303,0.209-0.51,0.486-0.623,0.83
			c-0.112,0.345-0.168,0.982-0.168,1.911v3.768h-2.201v-8.319h2.044v1.222c0.726-0.94,1.64-1.41,2.742-1.41
			c0.486,0,0.93,0.088,1.332,0.263c0.402,0.175,0.706,0.398,0.913,0.669c0.206,0.272,0.35,0.58,0.431,0.924
			c0.081,0.345,0.121,0.838,0.121,1.48V765.275z"/>
		<path d="M514.165,762.628l2.193,0.368c-0.282,0.804-0.727,1.417-1.336,1.837c-0.608,0.42-1.369,0.63-2.283,0.63
			c-1.447,0-2.517-0.473-3.212-1.418c-0.548-0.757-0.823-1.713-0.823-2.867c0-1.379,0.36-2.458,1.081-3.239
			c0.721-0.781,1.632-1.171,2.734-1.171c1.238,0,2.214,0.409,2.93,1.225c0.715,0.818,1.057,2.07,1.026,3.756h-5.514
			c0.016,0.653,0.193,1.161,0.533,1.523c0.339,0.364,0.762,0.545,1.269,0.545c0.345,0,0.634-0.094,0.869-0.282
			C513.867,763.348,514.045,763.045,514.165,762.628z M514.29,760.403c-0.016-0.637-0.18-1.121-0.493-1.453
			c-0.313-0.331-0.695-0.497-1.144-0.497c-0.48,0-0.877,0.175-1.191,0.525c-0.313,0.35-0.467,0.825-0.462,1.426H514.29z"/>
		<path d="M525.578,765.275h-2.044v-1.222c-0.339,0.475-0.74,0.829-1.202,1.062c-0.462,0.232-0.928,0.348-1.398,0.348
			c-0.956,0-1.774-0.385-2.456-1.156c-0.682-0.769-1.022-1.844-1.022-3.223c0-1.41,0.332-2.481,0.995-3.216
			c0.663-0.733,1.501-1.1,2.514-1.1c0.93,0,1.734,0.386,2.413,1.159v-4.136h2.201V765.275z M519.703,760.936
			c0,0.888,0.123,1.53,0.368,1.927c0.355,0.574,0.851,0.862,1.488,0.862c0.506,0,0.937-0.216,1.292-0.646
			c0.355-0.432,0.533-1.075,0.533-1.931c0-0.956-0.172-1.643-0.517-2.064c-0.345-0.42-0.786-0.631-1.324-0.631
			c-0.522,0-0.96,0.208-1.312,0.622C519.879,759.491,519.703,760.11,519.703,760.936z"/>
		<path d="M531.469,765.275v-11.483h2.201v4.136c0.679-0.773,1.483-1.159,2.413-1.159c1.013,0,1.851,0.367,2.514,1.1
			c0.663,0.734,0.995,1.788,0.995,3.161c0,1.42-0.338,2.514-1.014,3.282c-0.676,0.768-1.497,1.151-2.464,1.151
			c-0.475,0-0.944-0.119-1.406-0.357c-0.462-0.237-0.86-0.588-1.195-1.053v1.222H531.469z M533.654,760.936
			c0,0.862,0.136,1.499,0.407,1.911c0.381,0.585,0.888,0.877,1.52,0.877c0.486,0,0.9-0.207,1.242-0.623
			c0.342-0.414,0.513-1.069,0.513-1.962c0-0.95-0.172-1.635-0.517-2.056c-0.345-0.42-0.786-0.631-1.324-0.631
			c-0.527,0-0.966,0.205-1.316,0.615C533.829,759.478,533.654,760.1,533.654,760.936z"/>
		<path d="M540,756.956h2.342l1.99,5.906l1.943-5.906h2.279l-2.937,8.005l-0.525,1.449c-0.193,0.486-0.377,0.856-0.552,1.112
			c-0.175,0.256-0.376,0.463-0.603,0.622c-0.227,0.159-0.507,0.284-0.838,0.372c-0.332,0.089-0.706,0.133-1.124,0.133
			c-0.423,0-0.838-0.044-1.245-0.133l-0.196-1.723c0.345,0.068,0.655,0.102,0.932,0.102c0.512,0,0.89-0.151,1.136-0.45
			c0.245-0.301,0.433-0.683,0.564-1.148L540,756.956z"/>
	</g>
</g>
<g>
	<g>
		<path style="fill:none;stroke:#000000;stroke-width:6;stroke-miterlimit:10;" d="M56.195,503.123l31.245,11.416
			c5.621,2.054,9.795,6.849,11.056,12.699l30.506,141.636h154.512"/>
		<path style="fill:none;stroke:#000000;stroke-width:6;stroke-miterlimit:10;" d="M306.372,566.635v61.589
			c0,9.622-7.8,17.422-17.422,17.422H124.062l-20.771-96.439h185.654C298.569,549.208,306.372,557.01,306.372,566.635z"/>
		<circle style="fill:none;stroke:#000000;stroke-width:6;stroke-miterlimit:10;" cx="131.059" cy="691.732" r="22.858"/>
		<circle style="fill:none;stroke:#000000;stroke-width:6;stroke-miterlimit:10;" cx="283.514" cy="691.732" r="22.858"/>
	</g>
	
		<line style="fill:none;stroke:#000000;stroke-width:6;stroke-miterlimit:10;" x1="113.676" y1="597.427" x2="306.372" y2="597.427"/>
</g>
</svg>
